{"title":"Tum Ho Yaara (2014) WebHD 720p x264 -={SPARROW}=-","uid":11805616,"size":1574372875,"categoryP":"video","categoryS":"other","magnet":"?xt=urn:btih:babb504c86ea9128e4d5d1295984ec1aa1d80182&amp;dn=Tum+Ho+Yaara+%282014%29+WebHD+720p+x264+-%3D%7BSPARROW%7D%3D-&amp;tr=udp%3A%2F%2Ftracker.openbittorrent.com%3A80&amp;tr=udp%3A%2F%2Fopen.demonii.com%3A1337&amp;tr=udp%3A%2F%2Ftracker.coppersurfer.tk%3A6969&amp;tr=udp%3A%2F%2Fexodus.desync.com%3A6969","seeders":2,"leechers":3,"uploader":"SS132203","files":3,"time":1428571663,"description":"Tum Ho Yaara (2014) WebHD 720p x264 -={SPARROW}=-\n &lt;a href=&quot;\nhttp://i.imgur.com/WHm4yqD.jpg&quot; rel=&quot;nofollow&quot; target=&quot;_NEW&quot;&gt;\nhttp://i.imgur.com/WHm4yqD.jpg&lt;/a&gt;\n &lt;a href=&quot;\nhttp://img9.imageshack.us/img9/9743/infonewr.png&quot; rel=&quot;nofollow&quot; target=&quot;_NEW&quot;&gt;\nhttp://img9.imageshack.us/img9/9743/infonewr.png&lt;/a&gt;\n\nFormat                      : MPEG-4\nFormat profile              : Base Media / Version 2\nFile size                   : 1.47 GiB\nDuration                    : 2h 15mn\nOverall bit rate mode       : Variable\nOverall bit rate            : 1 546 Kbps\nSource : - 1080p IcTv\n\nVideo\nID                          : 1\nFormat                      : AVC\nFormat/Info                 : Advanced Video Codec\nFormat profile              : &lt;a class=&quot;__cf_email__&quot; href=&quot;/cdn-cgi/l/email-protection&quot; data-cfemail=&quot;8dc0ece4e3cdc1b9a3bd&quot;&gt;[email&amp;#160;protected]&lt;/a&gt;&lt;script cf-hash='f9e31' type=&quot;text/javascript&quot;&gt;\n/* &lt;![CDATA[ */!function(){try{var t=&quot;currentScript&quot;in document?document.currentScript:function(){for(var t=document.getElementsByTagName(&quot;script&quot;),e=t.length;e--;)if(t[e].getAttribute(&quot;cf-hash&quot;))return t[e]}();if(t&amp;&amp;t.previousSibling){var e,r,n,i,c=t.previousSibling,a=c.getAttribute(&quot;data-cfemail&quot;);if(a){for(e=&quot;&quot;,r=parseInt(a.substr(0,2),16),n=2;a.length-n;n+=2)i=parseInt(a.substr(n,2),16)^r,e+=String.fromCharCode(i);e=document.createTextNode(e),c.parentNode.replaceChild(e,c)}}}catch(u){}}();/* ]]&gt; */&lt;/script&gt;\nFormat settings, CABAC      : Yes\nFormat settings, ReFrames   : 4 frames\nCodec ID                    : avc1\nCodec ID/Info               : Advanced Video Coding\nDuration                    : 2h 15mn\nBit rate                    : 1 350 Kbps\nWidth                       : 1 280 pixels\nHeight                      : 544 pixels\nDisplay aspect ratio        : 2.35:1\nFrame rate mode             : Constant\nFrame rate                  : 25.000 fps\nColor space                 : YUV\nChroma subsampling          : 4:2:0\nBit depth                   : 8 bits\nScan type                   : Progressive\nBits/(Pixel*Frame)          : 0.078\nStream size                 : 1.28 GiB (87%)\n\nAudio\nID                          : 2\nFormat                      : AAC\nFormat/Info                 : Advanced Audio Codec\nFormat profile              : LC\nCodec ID                    : 40\nDuration                    : 2h 15mn\nBit rate mode               : Variable\nBit rate                    : 192 Kbps\nChannel(s)                  : 2 channels\nChannel positions           : Front: L R\nSampling rate               : 48.0 KHz\nCompression mode            : Lossy\nStream size                 : 185 MiB (12%)\n &lt;a href=&quot;\nhttp://img193.imageshack.us/img193/3562/screensnewred.png&quot; rel=&quot;nofollow&quot; target=&quot;_NEW&quot;&gt;\nhttp://img193.imageshack.us/img193/3562/screensnewred.png&lt;/a&gt;\n &lt;a href=&quot;\nhttp://imgsparrow.co/image/8o&quot; rel=&quot;nofollow&quot; target=&quot;_NEW&quot;&gt;\nhttp://imgsparrow.co/image/8o&lt;/a&gt;\n &lt;a href=&quot;\nhttp://imgsparrow.co/image/8M&quot; rel=&quot;nofollow&quot; target=&quot;_NEW&quot;&gt;\nhttp://imgsparrow.co/image/8M&lt;/a&gt;\n &lt;a href=&quot;\nhttp://imgsparrow.co/image/8m&quot; rel=&quot;nofollow&quot; target=&quot;_NEW&quot;&gt;\nhttp://imgsparrow.co/image/8m&lt;/a&gt;\n &lt;a href=&quot;\nhttp://imgsparrow.co/image/8F&quot; rel=&quot;nofollow&quot; target=&quot;_NEW&quot;&gt;\nhttp://imgsparrow.co/image/8F&lt;/a&gt;\n &lt;a href=&quot;\nhttp://imgsparrow.co/image/8O&quot; rel=&quot;nofollow&quot; target=&quot;_NEW&quot;&gt;\nhttp://imgsparrow.co/image/8O&lt;/a&gt;\n &lt;a href=&quot;\nhttp://imgsparrow.co/image/8p&quot; rel=&quot;nofollow&quot; target=&quot;_NEW&quot;&gt;\nhttp://imgsparrow.co/image/8p&lt;/a&gt;\n &lt;a href=&quot;\nhttp://imgsparrow.co/image/80&quot; rel=&quot;nofollow&quot; target=&quot;_NEW&quot;&gt;\nhttp://imgsparrow.co/image/80&lt;/a&gt;\n &lt;a href=&quot;\nhttp://imgsparrow.co/image/8B&quot; rel=&quot;nofollow&quot; target=&quot;_NEW&quot;&gt;\nhttp://imgsparrow.co/image/8B&lt;/a&gt;\n &lt;a href=&quot;\nhttp://imgsparrow.co/image/8K&quot; rel=&quot;nofollow&quot; target=&quot;_NEW&quot;&gt;\nhttp://imgsparrow.co/image/8K&lt;/a&gt;\n &lt;a href=&quot;\nhttp://imgsparrow.co/image/82&quot; rel=&quot;nofollow&quot; target=&quot;_NEW&quot;&gt;\nhttp://imgsparrow.co/image/82&lt;/a&gt;\n\nThanks to IcTv for Source\n &lt;a href=&quot;\nhttp://imgsparrow.org/images/2015/02/22/SPARROW.gif&quot; rel=&quot;nofollow&quot; target=&quot;_NEW&quot;&gt;\nhttp://imgsparrow.org/images/2015/02/22/SPARROW.gif&lt;/a&gt;","torrent":{"xt":"urn:btih:babb504c86ea9128e4d5d1295984ec1aa1d80182","amp;dn":"Tum+Ho+Yaara+%282014%29+WebHD+720p+x264+-%3D%7BSPARROW%7D%3D-","amp;tr":["udp%3A%2F%2Ftracker.openbittorrent.com%3A80","udp%3A%2F%2Fopen.demonii.com%3A1337","udp%3A%2F%2Ftracker.coppersurfer.tk%3A6969","udp%3A%2F%2Fexodus.desync.com%3A6969"],"infoHash":"babb504c86ea9128e4d5d1295984ec1aa1d80182","infoHashBuffer":{"type":"Buffer","data":[186,187,80,76,134,234,145,40,228,213,209,41,89,132,236,26,161,216,1,130]},"announce":[],"urlList":[]}}